# xmcd
#
# Track frame offsets:
#	150
#	14423
#	26885
#	39367
#	54464
#	69800
#	86822
#	97701
#	114676
#	127253
#	139381
#	157726
#	170756
#	183021
#	198299
#	213397
#	226828
#	239169
#	253140
#	265070
#
# Disc length: 3698 seconds
#
# Revision: 0
# Processed by: cddbd v1.5.2PL0 Copyright (c) Steve Scherf et al.
# Submitted via: dBpowerAMP V4.0
#
DISCID=170e7014
DTITLE=Kapelle Enzian Gümligen - 20 Jahre zäme unterwägs
DYEAR=2006
DGENRE=Volksmusik
TTITLE0=Jetzt wird gfäschtet
TTITLE1=Hans wird sächzig
TTITLE2=Für mi ganz allei
TTITLE3=Schlager Potpourri
TTITLE4=Marco's 40. Geburtstag
TTITLE5=Aloengruess-Polka
TTITLE6=Holzspaltmeisterschaft uf em Brandbärg
TTITLE7=Marina Beach
TTITLE8=Santo Domingo
TTITLE9=Schnipp-Schnapp-Fox
TTITLE10=Eine für d'Aelplerfründe_fans
TTITLE11=Üse Bueb
TTITLE12=d'Füürwehr chunt
TTITLE13=Sunntig i dr Bramegg
TTITLE14=Heissi Hösli
TTITLE15=Gody junior im Kindergarten
TTITLE16=Seemann deine Heimat ist das Meer
TTITLE17=Yvonne
TTITLE18=Bym Chutzefüür
TTITLE19=z' Nacht am Zwölfi
EXTD=
EXTT0=
EXTT1=
EXTT2=
EXTT3=
EXTT4=
EXTT5=
EXTT6=
EXTT7=
EXTT8=
EXTT9=
EXTT10=
EXTT11=
EXTT12=
EXTT13=
EXTT14=
EXTT15=
EXTT16=
EXTT17=
EXTT18=
EXTT19=
PLAYORDER=
